<mxfile host="app.diagrams.net" modified="2025-10-12T16:05:00Z" agent="Meta-Agent" version="22.0.0">
  <diagram id="avatar-pipeline" name="Avatar Pipeline">
    <mxGraphModel dx="1024" dy="768" grid="1" gridSize="10" guides="1" tooltips="1" connect="1" arrows="1" fold="1" page="1" pageScale="1" pageWidth="1169" pageHeight="827" math="0" shadow="0">
      <root>
        <mxCell id="0"/>
        <mxCell id="1" parent="0"/>
        <mxCell id="omniverse" value="Omniverse Stage" style="rounded=1;whiteSpace=wrap;html=1;fillColor=#dae8fc;strokeColor=#6c8ebf" vertex="1" parent="1">
          <mxGeometry x="120" y="200" width="160" height="70" as="geometry"/>
        </mxCell>
        <mxCell id="audio2face" value="Audio2Face" style="rounded=1;whiteSpace=wrap;html=1;fillColor=#ffe6cc;strokeColor=#d79b00" vertex="1" parent="1">
          <mxGeometry x="340" y="200" width="160" height="70" as="geometry"/>
        </mxCell>
        <mxCell id="riva" value="NVIDIA Riva" style="rounded=1;whiteSpace=wrap;html=1;fillColor=#d5e8d4;strokeColor=#82b366" vertex="1" parent="1">
          <mxGeometry x="560" y="200" width="160" height="70" as="geometry"/>
        </mxCell>
        <mxCell id="bridge" value="LangChain Bridge" style="rounded=1;whiteSpace=wrap;html=1;fillColor=#f8cecc;strokeColor=#b85450" vertex="1" parent="1">
          <mxGeometry x="780" y="200" width="160" height="70" as="geometry"/>
        </mxCell>
        <mxCell id="teams" value="Microsoft Teams" style="rounded=1;whiteSpace=wrap;html=1;fillColor=#e1d5e7;strokeColor=#9673a6" vertex="1" parent="1">
          <mxGeometry x="1000" y="200" width="160" height="70" as="geometry"/>
        </mxCell>
        <mxCell id="arrow1" style="edgeStyle=orthogonalEdgeStyle;rounded=0;jettySize=auto;orthogonalLoop=1;strokeColor=#6c8ebf" edge="1" parent="1" source="omniverse" target="audio2face">
          <mxGeometry relative="1" as="geometry"/>
        </mxCell>
        <mxCell id="arrow2" style="edgeStyle=orthogonalEdgeStyle;rounded=0;jettySize=auto;orthogonalLoop=1;strokeColor=#d79b00" edge="1" parent="1" source="audio2face" target="riva">
          <mxGeometry relative="1" as="geometry"/>
        </mxCell>
        <mxCell id="arrow3" style="edgeStyle=orthogonalEdgeStyle;rounded=0;jettySize=auto;orthogonalLoop=1;strokeColor=#82b366" edge="1" parent="1" source="riva" target="bridge">
          <mxGeometry relative="1" as="geometry"/>
        </mxCell>
        <mxCell id="arrow4" style="edgeStyle=orthogonalEdgeStyle;rounded=0;jettySize=auto;orthogonalLoop=1;strokeColor=#b85450" edge="1" parent="1" source="bridge" target="teams">
          <mxGeometry relative="1" as="geometry"/>
        </mxCell>
      </root>
    </mxGraphModel>
  </diagram>
</mxfile>
